# xmcd
#
# Track frame offsets:
#	150
#	13593
#	27115
#	38359
#	50122
#	63315
#	80567
#	96053
#	109353
#	119607
#	134667
#	146192
#	160817
#	175550
#
# Disc length: 2544 seconds
#
# Revision: 1
# Processed by: cddbd v1.5.2PL0 Copyright (c) Steve Scherf et al.
# Submitted via: audiograbber 1.83.01
#
DISCID=be09ee0e
DTITLE=Luiz Henrique - Pra Te Agarrar
DYEAR=2011
DGENRE=Sertanejo
TTITLE0=Não Fala Nada
TTITLE1=Vou Não, o Ricardão Vem Aí
TTITLE2=Pra Te Agarrar
TTITLE3=Você Tá Por Fora
TTITLE4=Adocica
TTITLE5=Garçom Seja Meu Amigo
TTITLE6=Tô Fazendo Falta
TTITLE7=Fica de Castigo
TTITLE8=Xote da Moreninha
TTITLE9=Telepatia
TTITLE10=Tendeu ou Não (O Vacilão)
TTITLE11=Deixe o Seu Recado
TTITLE12=Tarde Demais
TTITLE13=Não Existe Muié Feia (Part. Gino and Geno) Faixa Bônus
EXTD=
EXTT0=
EXTT1=
EXTT2=
EXTT3=
EXTT4=
EXTT5=
EXTT6=
EXTT7=
EXTT8=
EXTT9=
EXTT10=
EXTT11=
EXTT12=
EXTT13=
PLAYORDER=
